<svg viewBox="0 0 196.1 106.5" xmlns="http://www.w3.org/2000/svg">
    <path fill="#c40d3eff" d="M144.25 0c-13.41 8.06-27.16 15.57-40.52 23.73-.04 5.6-.01 11.2-.01 16.8l8.93 4.65.27-.05c.35-.05.38-.14.5-.21l.34-.25c.24-.18.51-.41.79-.65l.77-.65c.23-.18.46-.34.4-.32 1.8-1 3.91-1.21 6.12-.72l-18.2 10.44.08.15-.08-.04.05 17.27 40.73 23.59 12.43-7.26V73.4l-.53-.2c-.4-.15-.78-.33-1.14-.54-1.8-1.07-2.89-2.95-3.57-5.16 6.38 3.58 12.75 7.18 19.11 10.77l14.05-8.02v-44.8l-.02-1.65-1.62-1-12.45-7.66-8.45 5.04.06.54c.14 1.18.15 2.54.15 2.99-.03 2.31-1.27 4.47-3.39 6.25V8.52h-.22l.13-.08L144.26 0zm.01 1.92 11.5 6.6-4.12 2.65c-1.53-.3-4.5-.92-7.8-.82-5.06.15-9.29 1.57-12.3 3.89-3 2.31-4.76 5.55-4.8 9.16-.02 3.28 1.9 6.47 5.02 8.84 3.13 2.36 7.5 3.93 12.59 3.99 5.06.05 9.9-1.22 13.55-3.42 3.65-2.19 6.16-5.37 6.2-9.09 0-.4-.04-1.56-.13-2.65l6.7-3.99L181.9 24c-12.7 7.2-26.46 15.06-37.61 21.38-13.09-7.3-26.73-14.95-38-21.26l37.97-22.2zm13.13 7.53v21.72l-.35.22a19.61 19.61 0 0 1-5.02 2.27V12.91l5.37-3.46zM144.5 12c2.09 0 4.37.33 5.87.6v21.46c-1.83.38-4.03.53-6 .5-4.74-.04-8.78-1.52-11.6-3.65-2.81-2.13-4.38-4.88-4.35-7.5.02-3.08 1.49-5.8 4.15-7.86 2.67-2.05 6.55-3.4 11.32-3.54l.6-.01zM1.42 22.87v47.3H3.1v-47.3H1.43zm11.36 0v47.3h1.67v-47.3h-1.67zm11.35 0v47.3h1.67v-47.3h-1.67zm11.35 0v47.3h1.67v-47.3h-1.67zm11.35 0v47.3h1.67v-47.3h-1.67zm11.36 0v47.3h1.67v-47.3H58.2zm11.35 0v47.3h1.67v-47.3h-1.67zm11.33 0v47.3h1.67v-47.3h-1.67zm11.38 0v47.3h1.67v-47.3h-1.67zm102.22 0v47.3h1.67v-47.3h-1.67zm-11.37 2.35V69.3l-10.73 6.13v-7.25c.92-1.1 1.8-2.28 2.57-3.58 2.58-4.37 3.73-9.03 3.47-13.11-.26-4.08-1.95-7.63-5.11-9.49-3.16-1.86-7.1-1.62-10.8.13-3.7 1.75-7.23 5-9.81 9.37-2.58 4.37-3.73 9.03-3.47 13.11.03.66.15 1.4.23 1.9.6 3.27 2.22 6.03 4.88 7.59.28.16.57.27.85.4v11.04l-10.15 5.9V46.87c13.93-7.91 24.57-13.97 38.07-21.65zm-77.73.29c13.77 7.68 25.7 14.43 38 21.27v44.57L105.35 69.2l-.04-13.45 5.5 3.19c.5 1.47 1.4 4.32 2.24 5.83 2.48 4.44 5.96 7.68 9.64 9.4 3.68 1.72 7.6 1.93 10.8.16 3.22-1.8 4.9-5.37 5.14-9.5.24-4.12-.9-8.86-3.37-13.27-2.47-4.43-5.92-7.77-9.57-9.6-3.65-1.82-7.57-2.13-10.77-.35-.26.14-.41.28-.66.48l-.79.67-.73.6-7.36-3.84V25.51zm62.75 16.85c1.57-.04 3.04.3 4.33 1.06 2.6 1.53 4.07 4.48 4.3 8.16.24 3.69-.81 8.06-3.24 12.16-.52.88-1.09 1.72-1.68 2.5L152.6 55.37c.43-1.01.94-2.03 1.53-3.03 2.42-4.1 5.75-7.13 9.1-8.72 1.67-.79 3.33-1.22 4.9-1.26zm-44.15.66c.32.13.64.27.97.43 1.9.96 3.8 2.4 5.5 4.26L112.18 57.8l-6.96-4.02 18.77-10.76zm7.57 5.98a25.02 25.02 0 0 1 2.26 3.36c2.32 4.17 3.38 8.63 3.15 12.37-.22 3.74-1.66 6.69-4.27 8.14-2.64 1.47-5.97 1.35-9.29-.2-3.32-1.56-6.58-4.56-8.9-8.7a40.67 40.67 0 0 1-1.78-4.58L131.55 49zM152 56.94c18.77 10.6-.04 0 18.72 10.6v9.05c-6.58-3.72-13.19-7.55-19.77-11.26-.04-.31-.05-.5-.07-.83a19.8 19.8 0 0 1 1.12-7.56z" />
    <path fill="#b3e6faff" d="M46.5 42.3H9.67v20.54h31.63v8.6H9.68v35.06H0V33.7h46.5Z" />
    <path fill="#00adefff" d="M1.2 78.2v9.1h1.21v-4.37h3.96v-1.08H2.4v-2.57h4.6v-1.07h-5.8zm10.77 0-3.3 9.1h1.22l.9-2.53h3.93l.9 2.54h1.28l-3.31-9.1h-1.62zm6.28 0v9.1h3.23c.63 0 1.15-.05 1.55-.16.42-.12.8-.31 1.13-.58.3-.22.52-.5.7-.85.17-.35.25-.75.25-1.2 0-.63-.17-1.16-.53-1.57a2.5 2.5 0 0 0-1.45-.81v-.05c.36-.18.66-.42.88-.73.22-.3.33-.67.33-1.1a2 2 0 0 0-.23-.99c-.15-.27-.4-.5-.73-.67-.3-.16-.61-.26-.94-.31a11.1 11.1 0 0 0-1.5-.07h-2.69zm8.52 0v9.1h5.76v-1.07h-4.55v-8.02h-1.2zm10.77 0-3.3 9.1h1.22l.9-2.53h3.93l.9 2.54h1.28l-3.31-9.1h-1.62zm6.28 0v9.1h3.23c.63 0 1.15-.05 1.55-.16.42-.12.8-.31 1.14-.58.28-.22.51-.5.69-.85.17-.35.25-.75.25-1.2 0-.63-.17-1.16-.53-1.57a2.5 2.5 0 0 0-1.45-.81v-.05c.36-.18.66-.42.88-.73.22-.3.33-.67.33-1.1a2 2 0 0 0-.23-.99c-.15-.27-.4-.5-.73-.67-.3-.16-.61-.26-.94-.31a11.1 11.1 0 0 0-1.5-.07h-2.69zm-24.36 1.04h1.44c.4 0 .74.01 1.02.04.27.03.5.1.7.2.16.1.27.22.35.37.07.15.1.34.1.56 0 .26-.03.5-.11.69a1 1 0 0 1-.4.47c-.2.12-.4.2-.63.24-.23.04-.53.06-.9.06h-1.57v-2.63zm25.57 0h1.44c.4 0 .74.01 1.02.04.27.03.5.1.7.2.16.1.27.22.35.37.07.15.1.34.1.56 0 .26-.03.5-.11.69a1 1 0 0 1-.4.47c-.2.12-.4.2-.63.24-.23.04-.53.06-.9.06h-1.57v-2.63zm-32.28.02 1.6 4.47h-3.2l1.6-4.47zm25.57 0 1.6 4.47h-3.2l1.6-4.47zM19.46 82.9h1.9c.4 0 .74.01 1.01.05.29.03.52.1.72.2.29.14.49.33.6.54.1.22.16.51.16.88 0 .32-.05.58-.16.79-.1.2-.27.38-.5.54-.21.15-.49.25-.83.3a8.7 8.7 0 0 1-1.3.08h-1.6V82.9zm25.57 0h1.9c.4 0 .74.01 1.01.05.29.03.52.1.72.2.29.14.49.33.6.54.1.22.16.51.16.88 0 .32-.05.58-.16.79-.1.2-.27.38-.5.54-.21.15-.49.25-.83.3a8.7 8.7 0 0 1-1.3.08h-1.6V82.9z" />
</svg>