<svg viewBox="0 0 196.104 106.5" xmlns="http://www.w3.org/2000/svg">
    <path d="M1.435 22.87v47.303h1.667V22.87H1.435zm11.353 0v47.303h1.668V22.87h-1.668zm11.352 0v47.303h1.668V22.87H24.14zm11.35 0v47.303h1.669V22.87H35.49zm11.355 0v47.303h1.668V22.87h-1.668zm11.353 0v47.303h1.668V22.87h-1.668zm11.355 0v47.303h1.668V22.87h-1.668zm11.33 0v47.303h1.669V22.87h-1.669zm11.375 0v47.303h1.669V22.87h-1.669zm102.22 0v47.303h1.669V22.87h-1.669z" />
    <path d="M46.495 42.307H9.68V62.84h31.633v8.604H9.68V106.5H0V33.702h46.495z" />
    <path d="M1.203 78.208v9.1h1.21v-4.382h3.954V81.85H2.413v-2.567h4.602v-1.075H1.203zm10.772 0-3.312 9.1H9.89l.892-2.537h3.936l.892 2.536h1.29l-3.313-9.1h-1.613zm6.275 0v9.1h3.226c.632 0 1.151-.058 1.559-.172a3.195 3.195 0 0 0 1.13-.574c.29-.224.52-.51.69-.856a2.67 2.67 0 0 0 .257-1.197c0-.632-.177-1.154-.531-1.565-.355-.416-.84-.687-1.455-.813v-.049c.367-.183.66-.426.88-.727.22-.306.33-.674.33-1.106 0-.383-.075-.711-.226-.984-.15-.277-.393-.503-.727-.679a3.033 3.033 0 0 0-.947-.305c-.33-.049-.827-.073-1.492-.073H18.25zm8.523 0v9.1h5.757v-1.076h-4.547v-8.024h-1.21zm10.772 0-3.312 9.1h1.228l.892-2.537h3.936l.893 2.536h1.289l-3.313-9.1h-1.613zm6.275 0v9.1h3.226c.632 0 1.151-.058 1.559-.172a3.197 3.197 0 0 0 1.13-.574c.29-.224.52-.51.69-.856a2.67 2.67 0 0 0 .258-1.197c0-.632-.178-1.154-.532-1.565-.354-.416-.84-.687-1.455-.813v-.049c.367-.183.66-.426.88-.727.22-.306.33-.674.33-1.106 0-.383-.075-.711-.226-.984-.15-.277-.393-.503-.727-.679a3.033 3.033 0 0 0-.947-.305c-.33-.049-.827-.073-1.491-.073H43.82zM19.46 79.24h1.442c.403 0 .741.013 1.014.042.273.024.506.092.697.202a.85.85 0 0 1 .354.366c.073.151.11.336.11.556 0 .265-.04.496-.122.691a.996.996 0 0 1-.403.47c-.192.123-.4.204-.624.245a5.856 5.856 0 0 1-.904.055H19.46v-2.627zm25.57 0h1.442c.403 0 .742.013 1.015.042.272.024.505.092.696.202a.851.851 0 0 1 .355.366c.073.151.11.336.11.556 0 .265-.041.496-.123.691a.996.996 0 0 1-.403.47c-.192.123-.4.204-.624.245a5.856 5.856 0 0 1-.904.055H45.03v-2.627zm-32.279.024 1.595 4.467H11.15l1.601-4.467zm25.57 0 1.595 4.467H36.72l1.601-4.467zM19.46 82.889h1.901c.4 0 .737.016 1.014.049.281.028.52.094.716.195.289.151.489.334.599.55s.164.507.164.874c0 .322-.052.585-.158.789a1.535 1.535 0 0 1-.502.543c-.215.147-.492.25-.83.306-.339.053-.773.08-1.302.08h-1.602v-3.386zm25.57 0h1.901c.4 0 .737.016 1.014.049.281.028.52.094.716.195.289.151.489.334.599.55s.164.507.164.874c0 .322-.052.585-.158.789a1.535 1.535 0 0 1-.502.543c-.215.147-.492.25-.83.306-.339.053-.773.08-1.302.08h-1.602v-3.386z" />
    <path d="m144.253 0-39.054 22.834-1.467.897-.078 1.821.062.004v14.97l8.93 4.655.274-.046c.349-.058.384-.142.496-.215.112-.073.222-.154.342-.247.24-.187.513-.416.789-.649s.551-.467.776-.652.452-.345.4-.316c1.798-.999 3.907-1.217 6.116-.727L103.632 52.77l.086.15-.077-.044.046 17.278 39.06 22.75 1.675.832 1.646-.985 10.786-6.27V73.403l-.535-.206a7.495 7.495 0 0 1-1.138-.54c-1.807-1.064-3.071-2.823-3.75-5.042l12.683 7.148 6.426 3.63.182-.323v.202l14.05-8.021V25.458l-.018-1.659-1.63-.994-12.444-7.662-8.448 5.036.061.537c.14 1.18.149 2.54.144 2.989-.024 2.318-1.264 4.471-3.382 6.256V8.524h-.228l.129-.083zm.006 1.92 11.502 6.602-4.12 2.65c-1.53-.297-4.507-.924-7.806-.824-5.054.152-9.283 1.574-12.288 3.888s-4.77 5.558-4.8 9.169c-.029 3.277 1.883 6.468 5.012 8.833s7.507 3.936 12.588 3.99c5.06.052 9.9-1.222 13.55-3.413 3.648-2.192 6.16-5.375 6.198-9.094.004-.409-.038-1.562-.127-2.647l6.699-3.992 11.232 6.92-10.787 6.13-22.305 12.693-4.52 2.56-3.257-1.812-6.381-3.578-28.355-15.876zm13.136 7.525V31.08h.147c-.164.106-.329.212-.5.314-1.532.92-3.33 1.673-5.286 2.216V12.854l.264.052zm-12.912 2.552c2.097-.005 4.113.282 5.613.546V34.01c-1.83.379-3.764.578-5.733.558-4.747-.05-8.784-1.528-11.6-3.657-2.815-2.128-4.38-4.878-4.357-7.493.026-3.085 1.489-5.81 4.155-7.865 2.667-2.054 6.553-3.403 11.323-3.547.2-.006.4-.009.599-.01zm38.628 13.225.003.246V69.29l-10.733 6.128v-7.25a26.703 26.703 0 0 0 2.568-3.581c2.579-4.365 3.728-9.03 3.472-13.11-.257-4.079-1.955-7.626-5.114-9.484-3.16-1.858-7.091-1.623-10.792.127-3.701 1.75-7.238 5.01-9.817 9.374-2.58 4.365-3.728 9.03-3.472 13.11.036.559.1 1.107.19 1.644l-.1.176.148.083c.602 3.261 2.22 6.018 4.876 7.581.276.162.566.276.851.404v11.033l-9.967 5.795-.188.113V46.87l4.59-2.602 22.308-12.693zm-77.733.288 28.458 15.934 6.385 3.58 3.154 1.754v44.569l-38.03-22.148-.039-13.445 5.512 3.18c.498 1.473 1.392 4.328 2.236 5.839 2.476 4.432 5.958 7.672 9.638 9.396 3.68 1.724 7.607 1.929 10.798.157h.004c3.218-1.79 4.887-5.372 5.13-9.495.243-4.123-.899-8.857-3.367-13.275-2.472-4.426-5.919-7.762-9.57-9.59s-7.566-2.14-10.769-.36c-.257.142-.411.284-.654.484-.243.2-.519.437-.79.665-.269.228-.533.448-.733.604l-7.363-3.84zm62.751 16.849c1.568-.043 3.042.303 4.336 1.065 2.59 1.522 4.068 4.471 4.3 8.158.232 3.687-.82 8.058-3.243 12.16a25.345 25.345 0 0 1-1.685 2.496l-5.956-3.368-13.28-7.498c.43-1.017.937-2.031 1.528-3.03 2.425-4.103 5.75-7.137 9.096-8.72 1.674-.79 3.336-1.221 4.904-1.263zm-44.151.656c.321.134.644.277.966.438 1.913.958 3.805 2.405 5.512 4.262l-18.167 10.417-.014-.041-.1-.294-6.967-4.017zm7.574 5.984a25.04 25.04 0 0 1 2.254 3.365c2.327 4.165 3.38 8.63 3.159 12.37-.22 3.74-1.67 6.687-4.28 8.138-2.64 1.465-5.967 1.346-9.286-.209-3.318-1.555-6.575-4.55-8.895-8.702-.467-.836-1.136-2.7-1.666-4.232zm20.451 7.941 13.062 7.375 5.706 3.227-.05.056v8.992l-5.791-3.272-13.954-7.866c-.04-.313-.073-.629-.094-.953-.146-2.328.221-4.926 1.121-7.559z" />
</svg>